<?xml version="1.0" standalone="no"?>
<!DOCTYPE svg PUBLIC "-//W3C//DTD SVG 20010904//EN"
 "http://www.w3.org/TR/2001/REC-SVG-20010904/DTD/svg10.dtd">
<svg version="1.0" xmlns="http://www.w3.org/2000/svg"
 width="34.000000pt" height="34.000000pt" viewBox="0 0 34.000000 34.000000"
 preserveAspectRatio="xMidYMid meet">

<g transform="translate(0.000000,34.000000) scale(0.100000,-0.100000)"
fill="#000000" stroke="none">
<path d="M106 209 c-25 -45 -46 -90 -46 -100 0 -29 45 -52 103 -52 57 0 91 13
106 41 7 14 -2 38 -41 105 -27 48 -56 87 -63 87 -7 0 -34 -37 -59 -81z m93 16
c17 -30 31 -56 31 -57 0 -2 -29 -3 -65 -3 -36 0 -64 2 -62 5 11 23 61 110 63
110 1 0 16 -25 33 -55z m46 -96 c18 -18 18 -20 3 -35 -24 -25 -108 -30 -146
-10 -35 18 -39 28 -18 45 40 34 126 33 161 0z"/>
</g>
</svg>
