<?xml version="1.0" standalone="no"?>
<!DOCTYPE svg PUBLIC "-//W3C//DTD SVG 20010904//EN"
 "http://www.w3.org/TR/2001/REC-SVG-20010904/DTD/svg10.dtd">
<svg version="1.0" xmlns="http://www.w3.org/2000/svg"
 width="34.000000pt" height="34.000000pt" viewBox="0 0 34.000000 34.000000"
 preserveAspectRatio="xMidYMid meet">

<g transform="translate(0.000000,34.000000) scale(0.100000,-0.100000)"
fill="#000000" stroke="none">
<path d="M97 222 l-57 -58 63 -62 63 -62 62 63 62 63 -58 57 c-32 31 -62 57
-68 57 -5 0 -35 -26 -67 -58z m102 -54 c1 -5 -14 -8 -33 -8 l-35 0 16 47 16
48 18 -40 c10 -22 18 -43 18 -47z m-71 29 c-8 -26 -16 -36 -26 -32 -7 3 -19 5
-25 5 -6 0 4 16 23 35 18 19 35 33 36 32 2 -2 -2 -20 -8 -40z m101 9 c31 -32
32 -34 11 -39 -17 -4 -24 1 -36 28 -23 56 -20 58 25 11z m-103 -88 l16 -33
-31 29 c-35 34 -36 36 -16 36 8 0 22 -15 31 -32z m63 18 c1 -4 -3 -21 -10 -38
l-13 -32 -13 30 c-6 16 -12 34 -13 39 0 12 43 13 49 1z m61 11 c0 -2 -14 -16
-31 -33 l-31 -29 16 33 c9 17 23 32 31 32 8 0 15 -1 15 -3z"/>
</g>
</svg>
