<?xml version="1.0" standalone="no"?>
<!DOCTYPE svg PUBLIC "-//W3C//DTD SVG 20010904//EN"
 "http://www.w3.org/TR/2001/REC-SVG-20010904/DTD/svg10.dtd">
<svg version="1.0" xmlns="http://www.w3.org/2000/svg"
 width="34.000000pt" height="34.000000pt" viewBox="0 0 34.000000 34.000000"
 preserveAspectRatio="xMidYMid meet">

<g transform="translate(0.000000,34.000000) scale(0.100000,-0.100000)"
fill="#000000" stroke="none">
<path d="M112 268 l-53 -30 3 -65 3 -66 51 -28 51 -29 46 26 c57 31 59 35 63
92 4 59 -5 73 -63 104 l-48 27 -53 -31z m75 -4 c5 -15 -20 -24 -37 -14 -7 4
-9 13 -5 19 8 14 37 11 42 -5z m-50 -30 c5 -15 -20 -24 -37 -14 -7 4 -9 13 -5
19 8 14 37 11 42 -5z m102 7 c11 -7 10 -11 -6 -19 -22 -12 -49 0 -39 17 9 13
26 14 45 2z m-129 -61 c0 -11 -4 -20 -8 -20 -14 0 -32 24 -32 42 0 16 3 17 20
8 11 -6 20 -20 20 -30z m77 24 c5 -15 -20 -24 -37 -14 -7 4 -9 13 -5 19 8 14
37 11 42 -5z m63 -29 c-7 -8 -16 -15 -21 -15 -16 0 -10 32 9 46 14 10 18 10
20 -2 2 -8 -2 -21 -8 -29z m-90 -26 c0 -17 -3 -18 -20 -9 -11 6 -20 20 -20 31
0 17 3 18 20 9 11 -6 20 -20 20 -31z m34 -6 c-17 -12 -19 -12 -23 3 -2 10 5
24 15 31 17 12 19 12 23 -3 2 -10 -5 -24 -15 -31z m-84 -24 c0 -17 -3 -18 -20
-9 -11 6 -20 20 -20 31 0 17 3 18 20 9 11 -6 20 -20 20 -31z m140 -4 c-17 -21
-30 -19 -30 5 0 24 33 46 38 24 2 -8 -2 -21 -8 -29z m-102 3 c7 -7 12 -20 12
-30 0 -16 -3 -17 -20 -8 -11 6 -20 20 -20 30 0 23 10 26 28 8z m60 -10 c-2
-13 -11 -24 -20 -26 -21 -4 -24 18 -6 36 19 19 30 14 26 -10z"/>
</g>
</svg>
