<?xml version="1.0" standalone="no"?>
<!DOCTYPE svg PUBLIC "-//W3C//DTD SVG 20010904//EN"
 "http://www.w3.org/TR/2001/REC-SVG-20010904/DTD/svg10.dtd">
<svg version="1.0" xmlns="http://www.w3.org/2000/svg"
 width="34.000000pt" height="34.000000pt" viewBox="0 0 34.000000 34.000000"
 preserveAspectRatio="xMidYMid meet">

<g transform="translate(0.000000,34.000000) scale(0.100000,-0.100000)"
fill="#000000" stroke="none">
<path d="M103 271 c-40 -25 -53 -49 -53 -101 0 -55 30 -96 80 -111 68 -21 132
14 150 81 12 45 -2 92 -38 124 -32 28 -100 31 -139 7z m126 -20 c43 -31 34
-36 -63 -36 -88 0 -93 1 -84 18 13 25 67 48 98 41 14 -3 36 -13 49 -23z m6
-55 c41 -17 44 -30 13 -47 -30 -16 -136 -16 -165 0 -32 16 -29 29 10 46 42 18
99 19 142 1z m-70 -76 c24 0 55 4 69 10 34 13 34 -4 0 -35 -38 -35 -102 -35
-138 1 -33 34 -33 46 0 34 14 -6 45 -10 69 -10z"/>
</g>
</svg>
